<?xml version="1.0" encoding="UTF-8" standalone="no"?>
<!-- Creator: fig2dev Version 3.2.9 -->

<!-- CreationDate: 2024-01-19 13:01:15 -->

<!-- Magnification: 1.05 -->

<svg
   width="400pt"
   height="242pt"
   viewBox="528 618 2274 1374"
   version="1.1"
   id="svg138"
   sodipodi:docname="calc.svg"
   inkscape:export-filename="calc.jpg"
   inkscape:export-xdpi="201.4355"
   inkscape:export-ydpi="201.4355"
   inkscape:version="1.2.2 (b0a84865, 2022-12-01)"
   xmlns:inkscape="http://www.inkscape.org/namespaces/inkscape"
   xmlns:sodipodi="http://sodipodi.sourceforge.net/DTD/sodipodi-0.dtd"
   xmlns="http://www.w3.org/2000/svg"
   xmlns:svg="http://www.w3.org/2000/svg">
  <defs
     id="defs142" />
  <sodipodi:namedview
     id="namedview140"
     pagecolor="#ffffff"
     bordercolor="#000000"
     borderopacity="0.25"
     inkscape:showpageshadow="2"
     inkscape:pageopacity="0.0"
     inkscape:pagecheckerboard="0"
     inkscape:deskcolor="#d1d1d1"
     inkscape:document-units="pt"
     showgrid="false"
     inkscape:zoom="6.8697917"
     inkscape:cx="96"
     inkscape:cy="58.007582"
     inkscape:window-width="1463"
     inkscape:window-height="1205"
     inkscape:window-x="0"
     inkscape:window-y="25"
     inkscape:window-maximized="0"
     inkscape:current-layer="g136" />
  <g
     fill="none"
     id="g136">
    <!-- Ellipse -->
    <rect
       style="fill:#ffffff;stroke-width:11.8448"
       id="rect512"
       width="2258.6892"
       height="1358.6619"
       x="536.51752"
       y="626.62097"
       transform="translate(-4.8620691e-6)" />
    <ellipse
       transform="translate(1864,1309) rotate(-90)"
       rx="177"
       ry="71"
       fill="#ffffff"
       stroke="#000000"
       stroke-width="8px"
       id="ellipse2" />
    <!-- Ellipse -->
    <ellipse
       transform="translate(1864,1804) rotate(-90)"
       rx="177"
       ry="71"
       fill="#ffffff"
       stroke="#000000"
       stroke-width="8px"
       id="ellipse4" />
    <!-- Ellipse -->
    <ellipse
       transform="translate(1864,814) rotate(-90)"
       rx="177"
       ry="71"
       fill="#ffffff"
       stroke="#000000"
       stroke-width="8px"
       id="ellipse6" />
    <!-- Text -->
    <text
       xml:space="preserve"
       x="765"
       y="1350"
       fill="#000000"
       font-family="Helvetica"
       font-style="normal"
       font-weight="normal"
       font-size="96"
       text-anchor="middle"
       id="text8">pere</text>
    <!-- Line -->
    <rect
       x="2340"
       y="630"
       width="450"
       height="450"
       stroke="#000000"
       stroke-width="8px"
       id="rect10" />
    <!-- Line -->
    <rect
       x="1511"
       y="1132"
       width="353"
       height="353"
       fill="#ffffff"
       id="rect12" />
    <!-- Line -->
    <rect
       x="2340"
       y="1530"
       width="450"
       height="450"
       stroke="#000000"
       stroke-width="8px"
       id="rect14" />
    <!-- Text -->
    <text
       xml:space="preserve"
       x="2565"
       y="1800"
       fill="#000000"
       font-family="Helvetica"
       font-style="normal"
       font-weight="normal"
       font-size="96"
       text-anchor="middle"
       id="text16">fils *</text>
    <!-- Line -->
    <rect
       x="1511"
       y="1627"
       width="353"
       height="353"
       fill="#ffffff"
       id="rect18" />
    <!-- Text -->
    <text
       xml:space="preserve"
       x="2565"
       y="900"
       fill="#000000"
       font-family="Helvetica"
       font-style="normal"
       font-weight="normal"
       font-size="96"
       text-anchor="middle"
       id="text20">fils +</text>
    <!-- Line -->
    <rect
       x="1511"
       y="637"
       width="353"
       height="353"
       fill="#ffffff"
       id="rect22" />
    <!-- Line -->
    <rect
       x="540"
       y="1080"
       width="450"
       height="450"
       stroke="#000000"
       stroke-width="8px"
       id="rect24" />
    <!-- Ellipse -->
    <ellipse
       transform="translate(1511,1309) rotate(-90)"
       rx="177"
       ry="71"
       fill="#ffffff"
       stroke="#000000"
       stroke-width="8px"
       id="ellipse26" />
    <!-- Line -->
    <polyline
       points=" 1511,1485 1864,1485"
       stroke="#000000"
       stroke-width="8px"
       id="polyline28" />
    <!-- Line -->
    <polyline
       points=" 1511,1132 1864,1132"
       stroke="#000000"
       stroke-width="8px"
       id="polyline30" />
    <!-- Ellipse -->
    <ellipse
       transform="translate(1511,1804) rotate(-90)"
       rx="177"
       ry="71"
       fill="#ffffff"
       stroke="#000000"
       stroke-width="8px"
       id="ellipse32" />
    <!-- Line -->
    <polyline
       points=" 1511,1980 1864,1980"
       stroke="#000000"
       stroke-width="8px"
       id="polyline34" />
    <!-- Line -->
    <polyline
       points=" 1511,1627 1864,1627"
       stroke="#000000"
       stroke-width="8px"
       id="polyline36" />
    <!-- Ellipse -->
    <ellipse
       transform="translate(1511,814) rotate(-90)"
       rx="177"
       ry="71"
       fill="#ffffff"
       stroke="#000000"
       stroke-width="8px"
       id="ellipse38" />
    <!-- Line -->
    <polyline
       points=" 1511,990 1864,990"
       stroke="#000000"
       stroke-width="8px"
       id="polyline40" />
    <!-- Line -->
    <polyline
       points=" 1511,637 1864,637"
       stroke="#000000"
       stroke-width="8px"
       id="polyline42" />
    <!-- Text -->
    <text
       xml:space="preserve"
       x="1755"
       y="900"
       fill="#000000"
       font-family="Helvetica"
       font-style="normal"
       font-weight="normal"
       font-size="72"
       text-anchor="middle"
       id="text44">+</text>
    <!-- Line -->
    <defs
       id="defs49">
      <clipPath
         id="cp0">
        <path
           clip-rule="evenodd"
           d="M 528,618 H 2802 V 1992 H 528 z   M 1096,1373 1096,1328 983,1343 983,1357z"
           id="path46" />
      </clipPath>
    </defs>
    <polyline
       points=" 1530,1350 990,1350"
       clip-path="url(#cp0)"
       stroke="#000000"
       stroke-width="8px"
       id="polyline51" />
    <!-- Forward arrow to point 990,1350 -->
    <polygon
       points=" 1096,1328 1006,1350 1096,1373 1096,1328"
       stroke="#000000"
       stroke-width="8px"
       stroke-miterlimit="8"
       fill="#000000"
       id="polygon53" />
    <!-- Line -->
    <defs
       id="defs58">
      <clipPath
         id="cp1">
        <path
           clip-rule="evenodd"
           d="M 528,618 H 2802 V 1992 H 528 z   M 2234,788 2234,833 2347,817 2347,803z"
           id="path55" />
      </clipPath>
    </defs>
    <polyline
       points=" 1935,810 2340,810"
       clip-path="url(#cp1)"
       stroke="#000000"
       stroke-width="8px"
       stroke-linejoin="bevel"
       id="polyline60" />
    <!-- Forward arrow to point 2340,810 -->
    <polygon
       points=" 2234,833 2324,810 2234,788 2234,833"
       stroke="#000000"
       stroke-width="8px"
       stroke-miterlimit="8"
       fill="#000000"
       id="polygon62" />
    <!-- Line -->
    <defs
       id="defs67">
      <clipPath
         id="cp2">
        <path
           clip-rule="evenodd"
           d="M 528,618 H 2802 V 1992 H 528 z   M 2043,1275 2039,1230 1928,1254 1929,1267z"
           id="path64" />
      </clipPath>
    </defs>
    <polyline
       points=" 2340,990 2339,990 2334,990 2324,991 2307,993 2287,995 2267,998  2248,1001 2231,1006 2218,1011 2207,1018 2198,1026 2190,1035 2184,1046 2178,1059  2173,1074 2168,1090 2164,1107 2159,1125 2154,1143 2149,1160 2144,1176 2137,1191  2130,1204 2123,1215 2113,1224 2102,1232 2088,1239 2071,1244 2050,1249 2027,1252  2001,1255 1976,1257 1935,1260"
       clip-path="url(#cp2)"
       stroke="#000000"
       stroke-width="8px"
       stroke-linejoin="bevel"
       id="polyline69" />
    <!-- Forward arrow to point 1935,1260 -->
    <polygon
       points=" 2039,1230 1951,1259 2043,1275 2039,1230"
       stroke="#000000"
       stroke-width="8px"
       stroke-miterlimit="8"
       fill="#000000"
       id="polygon71" />
    <!-- Line -->
    <defs
       id="defs76">
      <clipPath
         id="cp3">
        <path
           clip-rule="evenodd"
           d="M 528,618 H 2802 V 1992 H 528 z   M 2234,1778 2234,1823 2347,1807 2347,1793z"
           id="path73" />
      </clipPath>
    </defs>
    <polyline
       points=" 1935,1800 2340,1800"
       clip-path="url(#cp3)"
       stroke="#000000"
       stroke-width="8px"
       stroke-linejoin="bevel"
       id="polyline78" />
    <!-- Forward arrow to point 2340,1800 -->
    <polygon
       points=" 2234,1823 2324,1800 2234,1778 2234,1823"
       stroke="#000000"
       stroke-width="8px"
       stroke-miterlimit="8"
       fill="#000000"
       id="polygon80" />
    <!-- Line -->
    <defs
       id="defs85">
      <clipPath
         id="cp4">
        <path
           clip-rule="evenodd"
           d="M 528,618 H 2802 V 1992 H 528 z   M 1378,791 1380,836 1492,817 1492,803z"
           id="path82" />
      </clipPath>
    </defs>
    <polyline
       points=" 990,1170 991,1170 996,1170 1006,1169 1023,1167 1043,1164 1063,1160  1082,1155 1099,1149 1112,1142 1123,1133 1132,1123 1140,1110 1146,1097 1150,1083  1155,1067 1160,1049 1164,1030 1168,1010 1173,990 1178,970 1184,950 1190,931 1197,913  1204,897 1213,883 1223,870 1232,860 1243,852 1256,845 1271,838 1288,833 1309,828  1331,824 1357,820 1384,817 1410,815 1435,813 1456,811 1485,810"
       clip-path="url(#cp4)"
       stroke="#000000"
       stroke-width="8px"
       stroke-linejoin="bevel"
       id="polyline87" />
    <!-- Forward arrow to point 1485,810 -->
    <polygon
       points=" 1380,836 1469,811 1378,791 1380,836"
       stroke="#000000"
       stroke-width="8px"
       stroke-miterlimit="8"
       fill="#000000"
       id="polygon89" />
    <!-- Line -->
    <defs
       id="defs94">
      <clipPath
         id="cp5">
        <path
           clip-rule="evenodd"
           d="M 528,618 H 2802 V 1992 H 528 z   M 2039,1380 2043,1335 1929,1343 1928,1356z"
           id="path91" />
      </clipPath>
    </defs>
    <polyline
       points=" 2340,1620 2339,1620 2334,1620 2324,1619 2307,1617 2287,1615  2267,1612 2248,1609 2231,1604 2218,1599 2207,1592 2198,1584 2190,1575 2184,1564  2178,1551 2173,1536 2168,1520 2164,1503 2159,1485 2154,1467 2149,1450 2144,1434  2137,1419 2130,1406 2123,1395 2113,1386 2102,1378 2088,1371 2071,1366 2050,1361  2027,1358 2001,1355 1976,1353 1935,1350"
       clip-path="url(#cp5)"
       stroke="#000000"
       stroke-width="8px"
       stroke-linejoin="bevel"
       id="polyline96" />
    <!-- Forward arrow to point 1935,1350 -->
    <polygon
       points=" 2043,1335 1951,1351 2039,1380 2043,1335"
       stroke="#000000"
       stroke-width="8px"
       stroke-miterlimit="8"
       fill="#000000"
       id="polygon98" />
    <!-- Line -->
    <defs
       id="defs103">
      <clipPath
         id="cp6">
        <path
           clip-rule="evenodd"
           d="M 528,618 H 2802 V 1992 H 528 z   M 1380,1774 1378,1819 1492,1807 1492,1793z"
           id="path100" />
      </clipPath>
    </defs>
    <polyline
       points=" 990,1440 991,1440 996,1440 1006,1441 1023,1443 1043,1446 1063,1450  1082,1455 1099,1461 1112,1468 1123,1477 1132,1487 1140,1500 1146,1513 1150,1527  1155,1543 1160,1561 1164,1580 1168,1600 1173,1620 1178,1640 1184,1660 1190,1679  1197,1697 1204,1713 1213,1727 1223,1740 1232,1750 1243,1758 1256,1765 1271,1772  1288,1777 1309,1782 1331,1786 1357,1790 1384,1793 1410,1795 1435,1797 1456,1799  1485,1800"
       clip-path="url(#cp6)"
       stroke="#000000"
       stroke-width="8px"
       stroke-linejoin="bevel"
       id="polyline105" />
    <!-- Forward arrow to point 1485,1800 -->
    <polygon
       points=" 1378,1819 1469,1799 1380,1774 1378,1819"
       stroke="#000000"
       stroke-width="8px"
       stroke-miterlimit="8"
       fill="#000000"
       id="polygon107" />
    <!-- Text -->
    <text
       xml:space="preserve"
       x="2115"
       y="1125"
       fill="#000000"
       font-family="Helvetica"
       font-style="normal"
       font-weight="normal"
       font-size="72"
       text-anchor="end"
       id="text109">(2) 20</text>
    <!-- Text -->
    <text
       xml:space="preserve"
       x="1170"
       y="1845"
       fill="#000000"
       font-family="Helvetica"
       font-style="normal"
       font-weight="normal"
       font-size="72"
       text-anchor="end"
       id="text111">(3) 20  2</text>
    <!-- Text -->
    <text
       xml:space="preserve"
       x="2115"
       y="1575"
       fill="#000000"
       font-family="Helvetica"
       font-style="normal"
       font-weight="normal"
       font-size="72"
       text-anchor="end"
       id="text113">(4) 40</text>
    <!-- Text -->
    <text
       xml:space="preserve"
       x="1755"
       y="810"
       fill="#000000"
       font-family="Helvetica"
       font-style="normal"
       font-weight="normal"
       font-size="72"
       text-anchor="middle"
       id="text115">tube</text>
    <!-- Text -->
    <text
       xml:space="preserve"
       x="1755"
       y="1260"
       fill="#000000"
       font-family="Helvetica"
       font-style="normal"
       font-weight="normal"
       font-size="72"
       text-anchor="middle"
       id="text117">tube</text>
    <!-- Text -->
    <text
       xml:space="preserve"
       x="1755"
       y="1395"
       fill="#000000"
       font-family="Helvetica"
       font-style="normal"
       font-weight="normal"
       font-size="72"
       text-anchor="middle"
       id="text119">resultats</text>
    <!-- Text -->
    <text
       xml:space="preserve"
       x="1170"
       y="855"
       fill="#000000"
       font-family="Helvetica"
       font-style="normal"
       font-weight="normal"
       font-size="72"
       text-anchor="end"
       id="text121">(1) 17  3</text>
    <!-- Text -->
    <text
       xml:space="preserve"
       x="1755"
       y="1935"
       fill="#000000"
       font-family="Helvetica"
       font-style="normal"
       font-weight="normal"
       font-size="72"
       text-anchor="middle"
       id="text123">*</text>
    <!-- Text -->
    <text
       xml:space="preserve"
       x="1755"
       y="1800"
       fill="#000000"
       font-family="Helvetica"
       font-style="normal"
       font-weight="normal"
       font-size="72"
       text-anchor="middle"
       id="text125">tube</text>
    <!-- Line -->
    <defs
       id="defs130">
      <clipPath
         id="cp7">
        <path
           clip-rule="evenodd"
           d="M 528,618 H 2802 V 1992 H 528 z   M 1096,1283 1096,1238 983,1253 983,1267z"
           id="path127" />
      </clipPath>
    </defs>
    <polyline
       points=" 1530,1260 990,1260"
       clip-path="url(#cp7)"
       stroke="#000000"
       stroke-width="8px"
       id="polyline132" />
    <!-- Forward arrow to point 990,1260 -->
    <polygon
       points=" 1096,1238 1006,1260 1096,1283 1096,1238"
       stroke="#000000"
       stroke-width="8px"
       stroke-miterlimit="8"
       fill="#000000"
       id="polygon134" />
  </g>
</svg>
